<svg width="186" height="64" viewBox="0 0 186 64" fill="none" xmlns="http://www.w3.org/2000/svg">
<rect width="64" height="64" rx="10" fill="#C6FF00"/>
<path d="M10.69 52V11.806H19.158L26.176 31.642L32.904 11.806H40.966V52H32.904V14.184L22.464 44.518H22.348L11.502 14.59V52H10.69Z" fill="black"/>
<rect x="44.5" y="40" width="12" height="12" rx="6" fill="black"/>
<path d="M74.595 27.5V7.403H78.829L82.338 17.321L85.702 7.403H89.733V27.5H85.702V8.592L80.482 23.759H80.424L75.001 8.795V27.5H74.595ZM96.8622 27.79C93.8752 27.79 91.9322 25.876 91.9322 23.382C91.9322 20.656 94.0782 18.829 96.8622 18.829H101.125V15.755C101.125 13.058 100.197 12.217 98.9792 12.217C97.8192 12.217 96.8332 13.145 96.8332 15.9C96.8332 16.306 96.8622 16.741 96.8912 17.089H92.8892C92.8892 13.986 95.5282 11.84 98.9792 11.84C102.43 11.84 105.04 13.986 105.04 17.466V27.5H101.125V25.267C100.429 26.862 98.9212 27.79 96.8622 27.79ZM98.4862 26.63C100.023 26.63 101.125 25.209 101.125 23.179V19.206H98.9792C97.0942 19.206 95.9052 20.801 95.9052 23.092C95.9052 25.18 96.8042 26.63 98.4862 26.63ZM114.45 27.79C110.013 27.79 107.374 24.107 107.374 19.815C107.374 15.523 110.013 11.84 114.45 11.84C117.553 11.84 119.67 13.58 120.569 16.393V4.445H124.484V27.5H120.569V23.237C119.67 26.05 117.553 27.79 114.45 27.79ZM115.987 27.036C118.452 27.036 120.656 24.107 120.656 19.815C120.656 15.494 118.452 12.565 115.987 12.565C113.29 12.565 111.405 15.494 111.405 19.815C111.405 24.107 113.203 27.036 115.987 27.036ZM133.991 27.79C129.554 27.79 126.915 24.107 126.915 19.815C126.915 15.523 129.554 11.84 133.991 11.84C137.094 11.84 139.211 13.58 140.11 16.393V4.445H144.025V27.5H140.11V23.237C139.211 26.05 137.094 27.79 133.991 27.79ZM135.528 27.036C137.993 27.036 140.197 24.107 140.197 19.815C140.197 15.494 137.993 12.565 135.528 12.565C132.831 12.565 130.946 15.494 130.946 19.815C130.946 24.107 132.744 27.036 135.528 27.036ZM158.723 22.048H162.551C161.594 25.499 158.52 27.79 154.663 27.79C149.994 27.79 146.456 24.484 146.456 19.815C146.456 15.146 149.994 11.84 154.663 11.84C158.491 11.84 161.594 14.073 162.522 17.466H150.632C150.545 18.162 150.487 18.974 150.487 19.815C150.487 24.339 151.966 27.413 154.663 27.413C156.693 27.413 158.259 25.615 158.723 22.048ZM154.663 12.217C152.691 12.217 151.212 13.87 150.69 17.089H158.636C158.201 14.711 157.041 12.217 154.663 12.217ZM168.906 27.5H164.991V4.445H168.906V27.5ZM175.961 27.79C172.974 27.79 171.031 25.876 171.031 23.382C171.031 20.656 173.177 18.829 175.961 18.829H180.224V15.755C180.224 13.058 179.296 12.217 178.078 12.217C176.918 12.217 175.932 13.145 175.932 15.9C175.932 16.306 175.961 16.741 175.99 17.089H171.988C171.988 13.986 174.627 11.84 178.078 11.84C181.529 11.84 184.139 13.986 184.139 17.466V27.5H180.224V25.267C179.528 26.862 178.02 27.79 175.961 27.79ZM177.585 26.63C179.122 26.63 180.224 25.209 180.224 23.179V19.206H178.078C176.193 19.206 175.004 20.801 175.004 23.092C175.004 25.18 175.903 26.63 177.585 26.63Z" fill="black"/>
<path d="M78.0456 53.5H73.6528V44.388H78.0456C80.9696 44.388 82.8192 46.088 82.8192 48.944C82.8192 51.8 80.9696 53.5 78.0456 53.5ZM78.0456 46.224H75.6928V51.664H78.0456C79.8952 51.664 80.6432 51.1336 80.6432 48.944C80.6432 46.7544 79.8952 46.224 78.0456 46.224ZM100.119 53.5H92.4082V44.388H100.119V46.224H94.4482V48.0056H99.9154V49.828H94.4482V51.664H100.119V53.5ZM113.879 53.636C111.119 53.636 109.568 52.548 109.568 50.4264V50.3448H111.608V50.5896C111.608 51.4328 112.03 51.7728 113.879 51.7728C115.511 51.7728 115.892 51.528 115.892 50.916C115.892 50.3584 115.579 50.1544 114.641 49.9912L112.084 49.624C110.452 49.3656 109.487 48.5496 109.487 47.0672C109.487 45.6936 110.602 44.252 113.662 44.252C116.463 44.252 117.769 45.544 117.769 47.4616V47.5432H115.715V47.3528C115.715 46.4824 115.267 46.1152 113.458 46.1152C111.989 46.1152 111.54 46.4008 111.54 46.9856C111.54 47.516 111.839 47.7064 112.601 47.8424L115.158 48.2504C117.198 48.5768 117.932 49.5696 117.932 50.8208C117.932 52.3032 116.776 53.636 113.879 53.636ZM129.507 53.5H127.467V44.388H129.507V53.5ZM143.576 53.636C140.788 53.636 139.075 51.7864 139.075 48.944C139.075 46.1016 141.006 44.252 144.134 44.252C146.99 44.252 148.799 45.5848 148.799 47.7744V47.8832H146.528V47.7744C146.528 46.7136 145.834 46.2104 144.08 46.2104C142.012 46.2104 141.237 46.9176 141.237 48.944C141.237 50.9704 141.985 51.6776 143.984 51.6776C146.079 51.6776 146.718 51.3512 146.772 50.1952H143.685V48.6856H148.812V53.5H146.922V51.5416H146.813C146.5 52.7384 145.548 53.636 143.576 53.636ZM160.555 53.5H158.515V44.388H160.691L163.955 48.6992L165.206 50.6168H165.356L165.26 48.7808V44.388H167.3V53.5H165.124L161.765 49.148L160.609 47.4344H160.473L160.555 49.1072V53.5ZM181.221 53.636C178.46 53.636 176.91 52.548 176.91 50.4264V50.3448H178.95V50.5896C178.95 51.4328 179.372 51.7728 181.221 51.7728C182.853 51.7728 183.234 51.528 183.234 50.916C183.234 50.3584 182.921 50.1544 181.983 49.9912L179.426 49.624C177.794 49.3656 176.828 48.5496 176.828 47.0672C176.828 45.6936 177.944 44.252 181.004 44.252C183.805 44.252 185.111 45.544 185.111 47.4616V47.5432H183.057V47.3528C183.057 46.4824 182.608 46.1152 180.8 46.1152C179.331 46.1152 178.882 46.4008 178.882 46.9856C178.882 47.516 179.181 47.7064 179.943 47.8424L182.5 48.2504C184.54 48.5768 185.274 49.5696 185.274 50.8208C185.274 52.3032 184.118 53.636 181.221 53.636Z" fill="black"/>
</svg>
